{
    "asset" : {
        "generator" : "Khronos glTF Blender I/O v1.5.17",
        "version" : "2.0"
    },
    "scene" : 0,
    "scenes" : [
        {
            "name" : "Scene",
            "nodes" : [
                0,
                1,
                2,
                3,
                4,
                5
            ]
        }
    ],
    "nodes" : [
        {
            "mesh" : 0,
            "name" : "Body1"
        },
        {
            "mesh" : 1,
            "name" : "Head1"
        },
        {
            "mesh" : 2,
            "name" : "ArmLeft1"
        },
        {
            "mesh" : 3,
            "name" : "ArmRight1"
        },
        {
            "mesh" : 4,
            "name" : "LegLeft1"
        },
        {
            "mesh" : 5,
            "name" : "LegRight1"
        }
    ],
    "materials" : [
        {
            "name" : "lambert1",
            "pbrMetallicRoughness" : {
                "baseColorTexture" : {
                    "index" : 0
                },
                "metallicFactor" : 0
            }
        }
    ],
    "meshes" : [
        {
            "name" : "Body1_1",
            "primitives" : [
                {
                    "attributes" : {
                        "POSITION" : 0,
                        "NORMAL" : 1,
                        "TEXCOORD_0" : 2
                    },
                    "indices" : 3,
                    "material" : 0
                }
            ]
        },
        {
            "name" : "Head1_1",
            "primitives" : [
                {
                    "attributes" : {
                        "POSITION" : 4,
                        "NORMAL" : 5,
                        "TEXCOORD_0" : 6
                    },
                    "indices" : 3,
                    "material" : 0
                }
            ]
        },
        {
            "name" : "ArmLeft1_1",
            "primitives" : [
                {
                    "attributes" : {
                        "POSITION" : 7,
                        "NORMAL" : 8,
                        "TEXCOORD_0" : 9
                    },
                    "indices" : 10,
                    "material" : 0
                }
            ]
        },
        {
            "name" : "ArmRight1_1",
            "primitives" : [
                {
                    "attributes" : {
                        "POSITION" : 11,
                        "NORMAL" : 12,
                        "TEXCOORD_0" : 13
                    },
                    "indices" : 14,
                    "material" : 0
                }
            ]
        },
        {
            "name" : "LegLeft1_1",
            "primitives" : [
                {
                    "attributes" : {
                        "POSITION" : 15,
                        "NORMAL" : 16,
                        "TEXCOORD_0" : 17
                    },
                    "indices" : 18,
                    "material" : 0
                }
            ]
        },
        {
            "name" : "LegRight1_1",
            "primitives" : [
                {
                    "attributes" : {
                        "POSITION" : 19,
                        "NORMAL" : 20,
                        "TEXCOORD_0" : 21
                    },
                    "indices" : 22,
                    "material" : 0
                }
            ]
        }
    ],
    "textures" : [
        {
            "sampler" : 0,
            "source" : 0
        }
    ],
    "images" : [
        {
            "bufferView" : 4,
            "mimeType" : "image/png",
            "name" : "skin_manAlternative"
        }
    ],
    "accessors" : [
        {
            "bufferView" : 0,
            "componentType" : 5126,
            "count" : 24,
            "max" : [
                2.0021700859069824,
                12,
                1
            ],
            "min" : [
                -2.0021700859069824,
                6,
                -1
            ],
            "type" : "VEC3"
        },
        {
            "bufferView" : 1,
            "componentType" : 5126,
            "count" : 24,
            "type" : "VEC3"
        },
        {
            "bufferView" : 2,
            "componentType" : 5126,
            "count" : 24,
            "type" : "VEC2"
        },
        {
            "bufferView" : 3,
            "componentType" : 5123,
            "count" : 36,
            "type" : "SCALAR"
        },
        {
            "bufferView" : 5,
            "componentType" : 5126,
            "count" : 24,
            "max" : [
                2,
                16,
                2
            ],
            "min" : [
                -2,
                12,
                -2
            ],
            "type" : "VEC3"
        },
        {
            "bufferView" : 6,
            "componentType" : 5126,
            "count" : 24,
            "type" : "VEC3"
        },
        {
            "bufferView" : 7,
            "componentType" : 5126,
            "count" : 24,
            "type" : "VEC2"
        },
        {
            "bufferView" : 8,
            "componentType" : 5126,
            "count" : 91,
            "max" : [
                4,
                12,
                1
            ],
            "min" : [
                2,
                5,
                -1
            ],
            "type" : "VEC3"
        },
        {
            "bufferView" : 9,
            "componentType" : 5126,
            "count" : 91,
            "type" : "VEC3"
        },
        {
            "bufferView" : 10,
            "componentType" : 5126,
            "count" : 91,
            "type" : "VEC2"
        },
        {
            "bufferView" : 11,
            "componentType" : 5123,
            "count" : 159,
            "type" : "SCALAR"
        },
        {
            "bufferView" : 12,
            "componentType" : 5126,
            "count" : 83,
            "max" : [
                -2,
                12,
                1
            ],
            "min" : [
                -4,
                5,
                -1
            ],
            "type" : "VEC3"
        },
        {
            "bufferView" : 13,
            "componentType" : 5126,
            "count" : 83,
            "type" : "VEC3"
        },
        {
            "bufferView" : 14,
            "componentType" : 5126,
            "count" : 83,
            "type" : "VEC2"
        },
        {
            "bufferView" : 15,
            "componentType" : 5123,
            "count" : 162,
            "type" : "SCALAR"
        },
        {
            "bufferView" : 16,
            "componentType" : 5126,
            "count" : 62,
            "max" : [
                2,
                6,
                2
            ],
            "min" : [
                -1.0910499706429124e-16,
                2.188239970623908e-17,
                -1
            ],
            "type" : "VEC3"
        },
        {
            "bufferView" : 17,
            "componentType" : 5126,
            "count" : 62,
            "type" : "VEC3"
        },
        {
            "bufferView" : 18,
            "componentType" : 5126,
            "count" : 62,
            "type" : "VEC2"
        },
        {
            "bufferView" : 19,
            "componentType" : 5123,
            "count" : 108,
            "type" : "SCALAR"
        },
        {
            "bufferView" : 20,
            "componentType" : 5126,
            "count" : 79,
            "max" : [
                2.320250075383549e-33,
                6,
                2
            ],
            "min" : [
                -2,
                2.3841900542720396e-07,
                -1
            ],
            "type" : "VEC3"
        },
        {
            "bufferView" : 21,
            "componentType" : 5126,
            "count" : 79,
            "type" : "VEC3"
        },
        {
            "bufferView" : 22,
            "componentType" : 5126,
            "count" : 79,
            "type" : "VEC2"
        },
        {
            "bufferView" : 23,
            "componentType" : 5123,
            "count" : 108,
            "type" : "SCALAR"
        }
    ],
    "bufferViews" : [
        {
            "buffer" : 0,
            "byteLength" : 288,
            "byteOffset" : 0
        },
        {
            "buffer" : 0,
            "byteLength" : 288,
            "byteOffset" : 288
        },
        {
            "buffer" : 0,
            "byteLength" : 192,
            "byteOffset" : 576
        },
        {
            "buffer" : 0,
            "byteLength" : 72,
            "byteOffset" : 768
        },
        {
            "buffer" : 0,
            "byteLength" : 21249,
            "byteOffset" : 840
        },
        {
            "buffer" : 0,
            "byteLength" : 288,
            "byteOffset" : 22092
        },
        {
            "buffer" : 0,
            "byteLength" : 288,
            "byteOffset" : 22380
        },
        {
            "buffer" : 0,
            "byteLength" : 192,
            "byteOffset" : 22668
        },
        {
            "buffer" : 0,
            "byteLength" : 1092,
            "byteOffset" : 22860
        },
        {
            "buffer" : 0,
            "byteLength" : 1092,
            "byteOffset" : 23952
        },
        {
            "buffer" : 0,
            "byteLength" : 728,
            "byteOffset" : 25044
        },
        {
            "buffer" : 0,
            "byteLength" : 318,
            "byteOffset" : 25772
        },
        {
            "buffer" : 0,
            "byteLength" : 996,
            "byteOffset" : 26092
        },
        {
            "buffer" : 0,
            "byteLength" : 996,
            "byteOffset" : 27088
        },
        {
            "buffer" : 0,
            "byteLength" : 664,
            "byteOffset" : 28084
        },
        {
            "buffer" : 0,
            "byteLength" : 324,
            "byteOffset" : 28748
        },
        {
            "buffer" : 0,
            "byteLength" : 744,
            "byteOffset" : 29072
        },
        {
            "buffer" : 0,
            "byteLength" : 744,
            "byteOffset" : 29816
        },
        {
            "buffer" : 0,
            "byteLength" : 496,
            "byteOffset" : 30560
        },
        {
            "buffer" : 0,
            "byteLength" : 216,
            "byteOffset" : 31056
        },
        {
            "buffer" : 0,
            "byteLength" : 948,
            "byteOffset" : 31272
        },
        {
            "buffer" : 0,
            "byteLength" : 948,
            "byteOffset" : 32220
        },
        {
            "buffer" : 0,
            "byteLength" : 632,
            "byteOffset" : 33168
        },
        {
            "buffer" : 0,
            "byteLength" : 216,
            "byteOffset" : 33800
        }
    ],
    "samplers" : [
        {
            "magFilter" : 9729,
            "minFilter" : 9987
        }
    ],
    "buffers" : [
        {
            "byteLength" : 34016,
            "uri" : "data:application/octet-stream;base64,"
        }
    ]
}
